# Blender v2.60 (sub 0) OBJ File: 'Puck.blend'
# www.blender.org
mtllib Puck.mtl
o Cylinder_Cylinder.001
v -0.098291 0.050200 -0.997974
v 0.804740 0.150241 0.079210
v 0.274642 0.050200 -0.966045
v 0.447129 0.150247 0.669176
v 0.623425 0.050200 -0.787408
v 0.669175 0.150247 0.447130
v 0.877298 0.050200 -0.488896
v -0.157010 0.150247 0.789347
v 0.997610 0.050200 -0.115954
v 0.307988 0.150247 0.743548
v 0.966045 0.050200 0.274641
v 0.538654 0.250200 -0.538651
v 0.669176 0.150247 -0.447127
v 0.555570 0.050200 0.831470
v 0.382683 0.050200 0.923880
v 0.743549 0.150247 -0.307986
v 0.080898 0.050200 1.001062
v 0.569087 0.150247 0.569088
v -0.308350 0.050200 0.955819
v -0.307986 0.150247 0.743549
v -0.650654 0.050200 0.765062
v -0.708418 0.151739 0.388100
v -0.893903 0.050200 0.457830
v -0.789346 0.150247 0.157014
v -1.001063 0.050200 0.080898
v -0.770523 0.151739 -0.242431
v -0.955819 0.050200 -0.308350
v -0.669178 0.150247 -0.447125
v -0.765062 0.050200 -0.650654
v 0.569088 0.150247 -0.569086
v -0.457830 0.050200 -0.893903
v 0.423216 0.250200 0.633389
v 0.000002 0.250200 -1.000000
v 0.308351 0.250200 -0.955819
v 0.789347 0.150247 -0.157009
v 0.555572 0.250200 -0.831469
v 0.787410 0.250200 -0.623423
v 0.743548 0.150247 0.307989
v 0.966045 0.250200 -0.274640
v 0.157012 0.150247 -0.789346
v 0.997610 0.250200 0.115955
v -0.569086 0.150247 0.569089
v 0.877297 0.250200 0.488897
v 0.000001 0.150247 0.804811
v 0.636171 0.250200 0.775177
v 0.088328 0.250236 -0.759933
v 0.382684 0.250200 0.923880
v 0.115954 0.250200 0.997610
v 0.157011 0.150247 0.789347
v -0.274640 0.250200 0.966045
v -0.447127 0.150247 0.669177
v -0.623423 0.250200 0.787410
v 0.307989 0.150247 -0.743547
v -0.877296 0.250200 0.488898
v -0.804811 0.150247 0.000004
v -0.997609 0.250200 0.115957
v 0.447130 0.150247 -0.669174
v -0.966046 0.250200 -0.274638
v -0.506009 0.148750 -0.629610
v -0.787411 0.250200 -0.623421
v -0.307993 0.150247 -0.743546
v -0.488901 0.250200 -0.877295
v -0.157016 0.150247 -0.789345
v -0.195097 0.250200 -0.980784
v 0.787408 0.050200 0.623425
v -0.098428 0.250176 -0.846800
v 0.372420 0.250236 -0.668284
v -0.414993 0.250173 -0.744671
v -0.088327 0.250236 0.759934
v -0.657996 0.250177 -0.539997
v -0.423221 0.250200 -0.633386
v -0.817263 0.250167 -0.247910
v 0.728099 0.250236 0.234888
v -0.847109 0.250177 0.083436
v -0.209213 0.250236 -0.735887
v -0.753192 0.250167 0.402592
v -0.372417 0.250236 0.668286
v -0.529177 0.250167 0.668373
v -0.324835 0.250200 0.784226
v -0.703783 0.250200 0.291519
v -0.068668 0.250173 0.849729
v 0.582788 0.250236 0.495640
v 0.261736 0.250173 0.811326
v 0.762577 0.250204 -0.061624
v 0.552293 0.250173 0.649406
v -0.760213 0.250231 0.074878
v 0.758768 0.250173 0.388620
v -0.590495 0.250231 0.484610
v 0.849729 0.250173 0.068671
v 0.832529 0.250200 -0.165598
v 0.680935 0.250236 -0.348752
v 0.744675 0.250173 -0.414986
v -0.599814 0.250236 -0.474893
v 0.529181 0.250173 -0.668372
v -0.735890 0.250236 -0.209205
v 0.233124 0.250173 -0.820004
v 0.209209 0.250236 0.735889
v 0.000001 0.150247 -0.804810
vn 0.584887 -0.666341 0.462416
vn -0.072115 -0.677175 -0.732261
vn 0.203558 -0.671163 -0.712790
vn 0.742332 0.664968 0.081820
vn 0.717185 0.664937 -0.208502
vn -0.507584 0.855861 0.099033
vn 0.457411 -0.668813 -0.586047
vn -0.563158 -0.667806 -0.486679
vn -0.374218 0.669729 -0.641377
vn -0.338694 -0.671163 -0.659352
vn 0.654561 -0.664907 -0.359691
vn 0.079134 0.671407 0.736808
vn -0.154546 0.864437 -0.478378
vn 0.036775 0.863735 -0.502579
vn 0.742393 -0.664907 -0.081820
vn -0.197821 0.667837 0.717521
vn 0.717185 -0.664907 0.208472
vn 0.278085 0.682485 0.675893
vn 0.472091 0.674123 0.568011
vn -0.325846 0.864437 -0.382794
vn -0.500443 0.864559 -0.045412
vn -0.486679 -0.667806 0.563158
vn -0.647237 0.667867 0.367412
vn -0.665120 -0.667806 0.334056
vn 0.654927 0.665059 0.358745
vn -0.447584 0.865322 -0.225410
vn 0.407422 -0.682974 0.606220
vn 0.268532 -0.682913 0.679312
vn 0.045167 -0.669668 0.741234
vn 0.585406 0.665242 -0.463363
vn -0.438307 0.863735 0.248634
vn -0.234107 -0.667806 0.706534
vn -0.457381 0.667867 0.587115
vn 0.199622 0.855861 -0.477065
vn 0.315104 0.864101 -0.392438
vn 0.436293 0.869442 -0.231666
vn -0.742332 -0.667806 0.054079
vn -0.738578 0.667867 0.091739
vn 0.504959 0.861690 -0.049745
vn -0.706534 -0.667806 -0.234107
vn -0.717460 0.667867 -0.197821
vn 0.473281 0.869411 0.141820
vn -0.587146 0.667867 -0.457350
vn 0.388073 0.865383 0.316965
vn 0.239998 0.866390 0.437849
vn 0.023164 0.679128 -0.733634
vn -0.165868 0.679128 -0.715018
vn 0.591235 0.804865 -0.051057
vn 0.282846 0.809595 -0.514298
vn 0.068026 0.809595 -0.582995
vn -0.311869 0.864437 0.394269
vn 0.405683 0.817347 -0.409070
vn 0.523850 0.810144 -0.263100
vn 0.237007 0.669820 -0.703635
vn 0.449110 0.809687 0.377697
vn 0.563952 0.805322 0.182592
vn 0.322123 0.817377 0.477584
vn 0.155919 0.809931 0.565386
vn -0.068026 0.809595 0.582995
vn -0.285623 0.809595 0.512772
vn -0.450575 0.809137 0.377117
vn -0.538926 0.815332 0.211524
vn -0.579577 0.813196 0.052309
vn -0.565416 0.809076 -0.160131
vn -0.470077 0.802484 -0.367412
vn -0.314066 0.816340 -0.484664
vn -0.155919 0.809961 -0.565325
vn 0.063570 0.994903 0.077944
vn -0.079043 0.992889 0.088931
vn -0.107059 0.992889 0.051912
vn 0.028901 0.994903 0.096347
vn -0.093905 0.995422 0.016083
vn -0.041719 0.997681 0.053499
vn -0.059114 0.997681 0.033692
vn 0.058229 0.864437 0.499313
vn -0.078951 0.996551 -0.024476
vn -0.108249 0.993652 -0.030427
vn -0.106998 0.992492 0.058931
vn -0.030000 0.992889 -0.115146
vn -0.100131 0.994903 0.009552
vn 0.002503 0.995422 -0.095248
vn -0.044343 0.997681 -0.051363
vn -0.006317 0.996826 -0.079196
vn -0.007813 0.997162 -0.074557
vn 0.004822 0.997681 -0.067873
vn 0.068209 0.996460 -0.048524
vn -0.028901 0.994903 -0.096347
vn 0.117740 0.992981 -0.009980
vn 0.068575 0.996673 -0.044008
vn 0.394848 0.677023 -0.621021
vn 0.071139 0.996734 -0.038026
vn 0.085818 0.996216 0.011933
vn 0.083438 0.996460 0.009522
vn -0.137242 0.864437 0.483596
vn 0.074892 0.995819 0.051790
vn 0.079409 0.993011 0.087191
vn -0.030061 0.994537 0.099918
vn 0.088565 0.994903 0.047670
usemtl Red_Plastic
s 1
f 65//1 1//2 3//3
f 41//4 39//5 90//6
f 65//1 3//3 5//7
f 29//8 62//9 31//10
f 65//1 5//7 7//11
f 48//12 83//13 81//14
f 65//1 7//11 9//15
f 50//16 48//12 81//14
f 65//1 9//15 11//17
f 47//18 45//19 85//20
f 41//4 90//6 89//21
f 21//22 54//23 23//24
f 43//25 89//21 87//26
f 65//1 14//27 15//28
f 65//1 15//28 17//29
f 39//5 37//30 92//31
f 65//1 17//29 19//32
f 45//19 43//25 87//26
f 65//1 19//32 21//22
f 52//33 79//34 78//35
f 65//1 21//22 23//24
f 54//23 52//33 76//36
f 65//1 23//24 25//37
f 56//38 54//23 74//39
f 65//1 25//37 27//40
f 58//41 56//38 72//42
f 65//1 27//40 29//8
f 60//43 58//41 70//44
f 65//1 29//8 31//10
f 62//9 60//43 68//45
f 31//10 1//2 65//1
f 33//46 1//2 64//47
f 48//12 47//18 83//13
f 84//48 67//49 46//50
f 37//30 94//51 92//31
f 84//48 12//52 67//49
f 84//48 91//53 12//52
f 65//1 45//19 14//27
f 15//28 47//18 48//12
f 1//2 33//46 3//3
f 33//46 34//54 3//3
f 23//24 56//38 25//37
f 84//48 82//55 73//56
f 5//7 37//30 7//11
f 84//48 32//57 82//55
f 84//48 97//58 32//57
f 7//11 39//5 9//15
f 84//48 69//59 97//58
f 47//18 85//20 83//13
f 84//48 77//60 69//59
f 11//17 43//25 65//1
f 84//48 88//61 77//60
f 3//3 34//54 5//7
f 84//48 80//62 88//61
f 84//48 86//63 80//62
f 50//16 81//14 79//34
f 84//48 95//64 86//63
f 54//23 76//36 74//39
f 84//48 93//65 95//64
f 9//15 41//4 11//17
f 84//48 71//66 93//65
f 84//48 75//67 71//66
f 14//27 45//19 47//18
f 84//48 46//50 75//67
f 40//68 98//69 46//50
f 27//40 60//43 29//8
f 53//70 40//68 46//50
f 53//70 46//50 67//49
f 57//71 53//70 67//49
f 43//25 45//19 65//1
f 30//72 57//71 67//49
f 30//72 67//49 12//52
f 13//73 30//72 12//52
f 13//73 12//52 91//53
f 16//74 13//73 91//53
f 33//46 64//47 66//75
f 35//76 16//74 91//53
f 35//76 91//53 84//48
f 2//77 35//76 84//48
f 15//28 48//12 17//29
f 34//54 33//46 66//75
f 2//77 84//48 73//56
f 38//78 2//77 73//56
f 39//5 41//4 9//15
f 6//79 38//78 73//56
f 6//79 73//56 82//55
f 18//80 6//79 82//55
f 43//25 41//4 89//21
f 4//81 18//80 82//55
f 4//81 82//55 32//57
f 10//82 4//81 32//57
f 10//82 32//57 97//58
f 49//83 10//82 97//58
f 19//32 52//33 21//22
f 44//84 49//83 97//58
f 44//84 97//58 69//59
f 8//85 44//84 69//59
f 41//4 43//25 11//17
f 20//86 8//85 69//59
f 20//86 69//59 77//60
f 51//87 20//86 77//60
f 25//37 58//41 27//40
f 42//88 51//87 77//60
f 42//88 77//60 88//61
f 22//89 42//88 88//61
f 34//54 36//90 5//7
f 39//5 92//31 90//6
f 22//89 88//61 80//62
f 24//91 22//89 80//62
f 24//91 80//62 86//63
f 55//92 24//91 86//63
f 36//90 37//30 5//7
f 26//93 55//92 95//64
f 55//92 86//63 95//64
f 36//90 34//54 96//94
f 37//30 39//5 7//11
f 28//95 26//93 93//65
f 26//93 95//64 93//65
f 59//96 28//95 93//65
f 64//47 1//2 31//10
f 37//30 36//90 94//51
f 59//96 93//65 71//66
f 61//97 59//96 71//66
f 61//97 71//66 75//67
f 63//98 61//97 75//67
f 14//27 47//18 15//28
f 98//69 63//98 75//67
f 98//69 75//67 46//50
f 29//8 60//43 62//9
f 66//75 63//98 98//69
f 66//75 68//45 61//97
f 66//75 61//97 63//98
f 60//43 70//44 68//45
f 68//45 59//96 61//97
f 68//45 70//44 59//96
f 58//41 72//42 70//44
f 17//29 48//12 50//16
f 70//44 28//95 59//96
f 70//44 72//42 28//95
f 72//42 26//93 28//95
f 64//47 62//9 66//75
f 36//90 96//94 94//51
f 72//42 74//39 55//92
f 72//42 55//92 26//93
f 52//33 50//16 79//34
f 74//39 24//91 55//92
f 74//39 76//36 24//91
f 76//36 22//89 24//91
f 31//10 62//9 64//47
f 56//38 74//39 72//42
f 76//36 78//35 42//88
f 76//36 42//88 22//89
f 19//32 50//16 52//33
f 78//35 51//87 42//88
f 78//35 79//34 20//86
f 78//35 20//86 51//87
f 79//34 81//14 8//85
f 79//34 8//85 20//86
f 23//24 54//23 56//38
f 81//14 44//84 8//85
f 81//14 83//13 49//83
f 81//14 49//83 44//84
f 25//37 56//38 58//41
f 83//13 10//82 49//83
f 83//13 85//20 4//81
f 83//13 4//81 10//82
f 45//19 87//26 85//20
f 85//20 18//80 4//81
f 85//20 87//26 6//79
f 85//20 6//79 18//80
f 17//29 50//16 19//32
f 87//26 38//78 6//79
f 87//26 89//21 2//77
f 87//26 2//77 38//78
f 21//22 52//33 54//23
f 34//54 66//75 96//94
f 89//21 90//6 35//76
f 89//21 35//76 2//77
f 90//6 92//31 16//74
f 90//6 16//74 35//76
f 27//40 58//41 60//43
f 92//31 13//73 16//74
f 92//31 94//51 30//72
f 92//31 30//72 13//73
f 62//9 68//45 66//75
f 94//51 57//71 30//72
f 94//51 96//94 53//70
f 94//51 53//70 57//71
f 52//33 78//35 76//36
f 96//94 40//68 53//70
f 96//94 66//75 98//69
f 96//94 98//69 40//68
