{
  "accessors": [
    {
      "name": "Cylinder_Cylinder.001-Mesh_0_positions",
      "componentType": 5126,
      "count": 98,
      "min": [
        -1.0010629892349243,
        0.050200000405311584,
        -1
      ],
      "max": [
        0.9976099729537964,
        0.25023600459098816,
        1.001062035560608
      ],
      "type": "VEC3",
      "bufferView": 0,
      "byteOffset": 0
    },
    {
      "name": "Cylinder_Cylinder.001-Mesh_0_normals",
      "componentType": 5126,
      "count": 98,
      "min": [
        -0.7423519492149353,
        -0.6829914450645447,
        -0.7336449027061462
      ],
      "max": [
        0.7424140572547913,
        0.9976959824562073,
        0.7412624955177307
      ],
      "type": "VEC3",
      "bufferView": 1,
      "byteOffset": 0
    },
    {
      "name": "Cylinder_Cylinder.001-Mesh_0_indices",
      "componentType": 5123,
      "count": 576,
      "min": [
        0
      ],
      "max": [
        97
      ],
      "type": "SCALAR",
      "bufferView": 2,
      "byteOffset": 0
    }
  ],
  "asset": {
    "generator": "obj2gltf",
    "version": "2.0"
  },
  "buffers": [
    {
      "name": "puck",
      "byteLength": 3504,
      "uri": "data:application/octet-stream;base64,"
    }
  ],
  "bufferViews": [
    {
      "name": "bufferView_0",
      "buffer": 0,
      "byteLength": 1176,
      "byteOffset": 0,
      "byteStride": 12,
      "target": 34962
    },
    {
      "name": "bufferView_1",
      "buffer": 0,
      "byteLength": 1176,
      "byteOffset": 1176,
      "byteStride": 12,
      "target": 34962
    },
    {
      "name": "bufferView_2",
      "buffer": 0,
      "byteLength": 1152,
      "byteOffset": 2352,
      "target": 34963
    }
  ],
  "materials": [
    {
      "name": "Red_Plastic",
      "pbrMetallicRoughness": {
        "baseColorFactor": [
          0.3376,
          0,
          0,
          1
        ],
        "metallicFactor": 0,
        "roughnessFactor": 0.9
      },
      "emissiveFactor": [
        0,
        0,
        0
      ],
      "alphaMode": "OPAQUE",
      "doubleSided": false
    }
  ],
  "meshes": [
    {
      "name": "Cylinder_Cylinder.001-Mesh",
      "primitives": [
        {
          "attributes": {
            "POSITION": 0,
            "NORMAL": 1
          },
          "indices": 2,
          "material": 0,
          "mode": 4
        }
      ]
    }
  ],
  "nodes": [
    {
      "name": "Cylinder_Cylinder.001",
      "mesh": 0
    }
  ],
  "scene": 0,
  "scenes": [
    {
      "nodes": [
        0
      ]
    }
  ]
}
