{
  "accessors": [
    {
      "name": "ID3.002_ID96.005-Mesh_0_positions",
      "componentType": 5126,
      "count": 284,
      "min": [
        -7.242118835449219,
        -0.0000019999999949504854,
        -3.8996009826660156
      ],
      "max": [
        7.242116928100586,
        -0.0000019999999949504854,
        3.8996028900146484
      ],
      "type": "VEC3",
      "bufferView": 0,
      "byteOffset": 0
    },
    {
      "name": "ID3.002_ID96.005-Mesh_0_normals",
      "componentType": 5126,
      "count": 284,
      "min": [
        0,
        1,
        0
      ],
      "max": [
        0,
        1,
        0
      ],
      "type": "VEC3",
      "bufferView": 1,
      "byteOffset": 0
    },
    {
      "name": "ID3.002_ID96.005-Mesh_0_indices",
      "componentType": 5123,
      "count": 804,
      "min": [
        0
      ],
      "max": [
        283
      ],
      "type": "SCALAR",
      "bufferView": 2,
      "byteOffset": 0
    },
    {
      "name": "ID3.002_ID96.005-Mesh_1_positions",
      "componentType": 5126,
      "count": 333,
      "min": [
        -7.242118835449219,
        -0.0000019999999949504854,
        -3.8996009826660156
      ],
      "max": [
        7.242116928100586,
        0.18569299578666687,
        3.8996028900146484
      ],
      "type": "VEC3",
      "bufferView": 0,
      "byteOffset": 3408
    },
    {
      "name": "ID3.002_ID96.005-Mesh_1_normals",
      "componentType": 5126,
      "count": 333,
      "min": [
        -1,
        0,
        -1
      ],
      "max": [
        1,
        1,
        1
      ],
      "type": "VEC3",
      "bufferView": 1,
      "byteOffset": 3408
    },
    {
      "name": "ID3.002_ID96.005-Mesh_1_indices",
      "componentType": 5123,
      "count": 888,
      "min": [
        0
      ],
      "max": [
        332
      ],
      "type": "SCALAR",
      "bufferView": 2,
      "byteOffset": 1608
    },
    {
      "name": "ID3.002_ID96.005-Mesh_2_positions",
      "componentType": 5126,
      "count": 353,
      "min": [
        -7.8456268310546875,
        -5.710134029388428,
        -4.456687927246094
      ],
      "max": [
        7.8456268310546875,
        0.2785409986972809,
        4.456689834594727
      ],
      "type": "VEC3",
      "bufferView": 0,
      "byteOffset": 7404
    },
    {
      "name": "ID3.002_ID96.005-Mesh_2_normals",
      "componentType": 5126,
      "count": 353,
      "min": [
        -1,
        -1,
        -1
      ],
      "max": [
        1,
        1,
        1
      ],
      "type": "VEC3",
      "bufferView": 1,
      "byteOffset": 7404
    },
    {
      "name": "ID3.002_ID96.005-Mesh_2_indices",
      "componentType": 5123,
      "count": 1632,
      "min": [
        0
      ],
      "max": [
        352
      ],
      "type": "SCALAR",
      "bufferView": 2,
      "byteOffset": 3384
    },
    {
      "name": "ID3.002_ID96.005-Mesh_3_positions",
      "componentType": 5126,
      "count": 208,
      "min": [
        -7.8456268310546875,
        -0.9204639792442322,
        -4.456687927246094
      ],
      "max": [
        7.8456268310546875,
        0.23211699724197388,
        4.456689834594727
      ],
      "type": "VEC3",
      "bufferView": 0,
      "byteOffset": 11640
    },
    {
      "name": "ID3.002_ID96.005-Mesh_3_normals",
      "componentType": 5126,
      "count": 208,
      "min": [
        -1,
        -1,
        -1
      ],
      "max": [
        1,
        1,
        1
      ],
      "type": "VEC3",
      "bufferView": 1,
      "byteOffset": 11640
    },
    {
      "name": "ID3.002_ID96.005-Mesh_3_indices",
      "componentType": 5123,
      "count": 432,
      "min": [
        0
      ],
      "max": [
        207
      ],
      "type": "SCALAR",
      "bufferView": 2,
      "byteOffset": 6648
    }
  ],
  "asset": {
    "generator": "obj2gltf",
    "version": "2.0"
  },
  "buffers": [
    {
      "name": "table",
      "byteLength": 35784,
      "uri": "data:application/octet-stream;base64,"
    }
  ],
  "bufferViews": [
    {
      "name": "bufferView_0",
      "buffer": 0,
      "byteLength": 14136,
      "byteOffset": 0,
      "byteStride": 12,
      "target": 34962
    },
    {
      "name": "bufferView_1",
      "buffer": 0,
      "byteLength": 14136,
      "byteOffset": 14136,
      "byteStride": 12,
      "target": 34962
    },
    {
      "name": "bufferView_2",
      "buffer": 0,
      "byteLength": 7512,
      "byteOffset": 28272,
      "target": 34963
    }
  ],
  "materials": [
    {
      "name": "ID53",
      "pbrMetallicRoughness": {
        "baseColorFactor": [
          0.64,
          0.627451,
          0.627451,
          1
        ],
        "metallicFactor": 0,
        "roughnessFactor": 0.996
      },
      "emissiveFactor": [
        0,
        0,
        0
      ],
      "alphaMode": "OPAQUE",
      "doubleSided": false
    },
    {
      "name": "ID5",
      "pbrMetallicRoughness": {
        "baseColorFactor": [
          0.64,
          0,
          0,
          1
        ],
        "metallicFactor": 0,
        "roughnessFactor": 0.975
      },
      "emissiveFactor": [
        0,
        0,
        0
      ],
      "alphaMode": "OPAQUE",
      "doubleSided": false
    },
    {
      "name": "ID13",
      "pbrMetallicRoughness": {
        "baseColorFactor": [
          0.2,
          0.2,
          0.2,
          1
        ],
        "metallicFactor": 0,
        "roughnessFactor": 0.908
      },
      "emissiveFactor": [
        0,
        0,
        0
      ],
      "alphaMode": "OPAQUE",
      "doubleSided": false
    },
    {
      "name": "ID33",
      "pbrMetallicRoughness": {
        "baseColorFactor": [
          0.471843,
          0.471843,
          0.471843,
          1
        ],
        "metallicFactor": 0,
        "roughnessFactor": 0.88
      },
      "emissiveFactor": [
        0,
        0,
        0
      ],
      "alphaMode": "OPAQUE",
      "doubleSided": false
    }
  ],
  "meshes": [
    {
      "name": "ID3.002_ID96.005-Mesh",
      "primitives": [
        {
          "attributes": {
            "POSITION": 0,
            "NORMAL": 1
          },
          "indices": 2,
          "material": 0,
          "mode": 4
        },
        {
          "attributes": {
            "POSITION": 3,
            "NORMAL": 4
          },
          "indices": 5,
          "material": 1,
          "mode": 4
        },
        {
          "attributes": {
            "POSITION": 6,
            "NORMAL": 7
          },
          "indices": 8,
          "material": 2,
          "mode": 4
        },
        {
          "attributes": {
            "POSITION": 9,
            "NORMAL": 10
          },
          "indices": 11,
          "material": 3,
          "mode": 4
        }
      ]
    }
  ],
  "nodes": [
    {
      "name": "ID3.002_ID96.005",
      "mesh": 0
    }
  ],
  "scene": 0,
  "scenes": [
    {
      "nodes": [
        0
      ]
    }
  ]
}
